<svg xmlns="http://www.w3.org/2000/svg" xmlns:xlink="http://www.w3.org/1999/xlink" version="1.1" x="0px" y="0px" viewBox="0 0 32 40" enable-background="new 0 0 32 32" xml:space="preserve"><path style="fill: #3F73BD ;" d="M16.3,0.5C7.7,0.5,0.8,7.4,0.8,16c0,2.6,0.7,5.2,2,7.5l-2.4,7c-0.1,0.3,0,0.6,0.2,0.8c0.1,0.2,0.3,0.2,0.6,0.2  c0.1,0,0.1,0,0.2,0l7.3-2.1c2.4,1.4,5,2.1,7.7,2.1c8.5,0,15.5-6.9,15.5-15.5S24.8,0.5,16.3,0.5z M12.3,20c-0.1,0-0.2,0-0.3,0  c-0.3,0-0.6-0.2-0.7-0.5c-0.1-0.4,0.1-0.8,0.5-1c0.8-0.3,1.3-2.6,1.3-4.5h-1.3c-0.4,0-0.8-0.3-0.8-0.8c0-0.4,0.3-0.8,0.8-0.8h2  c0.4,0,0.8,0.3,0.8,0.7C14.7,14.2,14.7,19.2,12.3,20z M18.5,20c-0.1,0-0.2,0-0.3,0c-0.3,0-0.6-0.2-0.7-0.5c-0.1-0.4,0.1-0.8,0.5-1  c0.8-0.3,1.3-2.6,1.3-4.5H18c-0.4,0-0.8-0.3-0.8-0.8c0-0.4,0.3-0.8,0.8-0.8h2c0.4,0,0.8,0.3,0.8,0.7C20.9,14.2,20.9,19.2,18.5,20z"/><text x="0" y="47" fill="#000000" font-size="5px" font-weight="bold" font-family="'Helvetica Neue', Helvetica, Arial-Unicode, Arial, Sans-serif">Created by Creative Stall</text><text x="0" y="52" fill="#000000" font-size="5px" font-weight="bold" font-family="'Helvetica Neue', Helvetica, Arial-Unicode, Arial, Sans-serif">from the Noun Project</text></svg>
